<svg id="Icon_map-grocery-or-supermarket" data-name="Icon map-grocery-or-supermarket" xmlns="http://www.w3.org/2000/svg" width="23.511" height="19.192" viewBox="0 0 23.511 19.192">
  <path id="Path_1" data-name="Path 1" d="M32.638,29.279a1.919,1.919,0,1,1-1.919-1.919A1.919,1.919,0,0,1,32.638,29.279Z" transform="translate(-9.608 -12.006)" fill="#fff"/>
  <path id="Path_2" data-name="Path 2" d="M11.758,29.279A1.919,1.919,0,1,1,9.839,27.36,1.919,1.919,0,0,1,11.758,29.279Z" transform="translate(-2.642 -12.006)" fill="#fff"/>
  <path id="Path_3" data-name="Path 3" d="M22.551,17.275H7.567l.32-.519A.96.96,0,0,0,8,16.011l-.312-1.2,13.906-.723a1.024,1.024,0,0,0,.958-1.009V6.719a.962.962,0,0,0-.96-.96H5.335l-.188-.721a.96.96,0,0,0-.929-.718H.96a.96.96,0,0,0,0,1.919H3.477L6.039,16.1,5.031,17.731a.96.96,0,0,0,.817,1.463h16.7a.96.96,0,0,0,0-1.919Z" transform="translate(0 -4.32)" fill="#fff"/>
</svg>
