<svg xmlns="http://www.w3.org/2000/svg" width="20.992" height="23.99" viewBox="0 0 20.992 23.99">
  <path id="Icon_awesome-discord" data-name="Icon awesome-discord" d="M13.926,11.4A1.228,1.228,0,1,1,12.7,10.064,1.278,1.278,0,0,1,13.926,11.4Zm-5.6-1.331a1.336,1.336,0,0,0,0,2.663A1.278,1.278,0,0,0,9.548,11.4,1.27,1.27,0,0,0,8.325,10.064ZM20.992,2.471V23.99c-3.022-2.671-2.055-1.787-5.566-5.05l.636,2.219H2.459A2.465,2.465,0,0,1,0,18.689V2.471A2.465,2.465,0,0,1,2.459,0H18.533A2.465,2.465,0,0,1,20.992,2.471ZM17.573,13.843a16.064,16.064,0,0,0-1.727-6.993,5.932,5.932,0,0,0-3.371-1.26l-.168.192a7.983,7.983,0,0,1,2.987,1.523,10.192,10.192,0,0,0-8.96-.348c-.444.2-.708.348-.708.348A8.092,8.092,0,0,1,8.781,5.734l-.12-.144A5.932,5.932,0,0,0,5.29,6.849a16.063,16.063,0,0,0-1.727,6.993,4.349,4.349,0,0,0,3.659,1.823s.444-.54.8-1a3.731,3.731,0,0,1-2.1-1.415c.176.124.467.284.492.3a8.744,8.744,0,0,0,7.485.42,6.864,6.864,0,0,0,1.379-.708,3.785,3.785,0,0,1-2.171,1.427c.36.456.792.972.792.972A4.385,4.385,0,0,0,17.573,13.843Z" fill="#fff"/>
</svg>
