<svg id="Icon_ionic-ios-mail" data-name="Icon ionic-ios-mail" xmlns="http://www.w3.org/2000/svg" width="19.492" height="13.495" viewBox="0 0 19.492 13.495">
  <path id="Path_5" data-name="Path 5" d="M22.708,10.343l-5.042,5.135a.091.091,0,0,0,0,.131l3.528,3.758a.608.608,0,0,1,0,.862.611.611,0,0,1-.862,0l-3.514-3.744a.1.1,0,0,0-.136,0l-.857.872a3.773,3.773,0,0,1-2.69,1.134,3.848,3.848,0,0,1-2.746-1.167l-.825-.839a.1.1,0,0,0-.136,0L5.915,20.229a.611.611,0,0,1-.862,0,.608.608,0,0,1,0-.862l3.528-3.758a.1.1,0,0,0,0-.131L3.534,10.343a.092.092,0,0,0-.159.066V20.684a1.5,1.5,0,0,0,1.5,1.5H21.368a1.5,1.5,0,0,0,1.5-1.5V10.408A.094.094,0,0,0,22.708,10.343Z" transform="translate(-3.375 -8.689)" fill="#fff"/>
  <path id="Path_6" data-name="Path 6" d="M13.4,16.454a2.547,2.547,0,0,0,1.832-.768L22.589,8.2a1.473,1.473,0,0,0-.928-.328H5.154a1.463,1.463,0,0,0-.928.328l7.352,7.483A2.548,2.548,0,0,0,13.4,16.454Z" transform="translate(-3.659 -7.875)" fill="#fff"/>
</svg>
