<svg xmlns="http://www.w3.org/2000/svg" width="23.99" height="20.992" viewBox="0 0 23.99 20.992">
  <path id="Icon_awesome-headphones-alt" data-name="Icon awesome-headphones-alt" d="M7.5,14.245h-.75a3,3,0,0,0-3,3v2.988a3,3,0,0,0,3,3H7.5a1.5,1.5,0,0,0,1.5-1.5V15.747A1.5,1.5,0,0,0,7.5,14.245Zm9.746,0h-.75a1.5,1.5,0,0,0-1.5,1.5v5.992a1.5,1.5,0,0,0,1.5,1.5h.75a3,3,0,0,0,3-3V17.25a3,3,0,0,0-3-3ZM12,2.25a12.224,12.224,0,0,0-12,12v5.248a.749.749,0,0,0,.75.75H1.5a.749.749,0,0,0,.75-.75V14.245a9.746,9.746,0,0,1,19.492,0v5.248a.749.749,0,0,0,.75.75h.75a.749.749,0,0,0,.75-.75V14.245A12.224,12.224,0,0,0,12,2.25Z" transform="translate(0 -2.25)" fill="#fff"/>
</svg>
